<svg height="185.760712" viewBox="0 0 37.663163 12.964584" width="538.326962" xmlns="http://www.w3.org/2000/svg" xmlns:xlink="http://www.w3.org/1999/xlink"><symbol id="a" overflow="visible"/><g transform="translate(-857.05413 -351.68798)"><g fill="#ffd400"><path d="m857.18642 364.52027h5.80016v-12.7h-5.80016zm0 0"/><path d="m863.5061 364.52027h5.80017v-12.7h-5.80017zm0 0"/><path d="m869.82579 364.52027h5.80016v-12.7h-5.80016zm0 0"/><path d="m876.14409 364.52027h5.80154v-12.7h-5.80154zm0 0"/><path d="m882.46515 364.52027h5.80017v-12.7h-5.80017zm0 0"/><path d="m888.78483 364.52027h5.80017v-12.7h-5.80017zm0 0"/></g><path d="m871.99206 358.46104h-1.28019v4.17407h1.30913v-1.32153l-.0524-.95085 1.48965 2.27238h1.28158v-4.17407h-1.31051v1.32843l.0524.95084zm0 0"/><path d="m880.8308 359.67371c-.0992-.73036-.62701-1.32154-1.78594-1.32154-1.04317 0-1.80936.44511-1.80936 1.33256 0 1.59439 2.40054 1.16031 2.40054 1.79145 0 .19706-.226.30731-.56775.30731-.13367 0-.27837-.0345-.38861-.10473-.11575-.0689-.19706-.17915-.226-.32936h-1.31051c.0289.75241.74827 1.39596 1.84933 1.39596 1.1479 0 1.95405-.46854 1.95405-1.4373 0-1.51859-2.40054-1.12999-2.40054-1.757 0-.1502.13367-.23702.43546-.23702.13229 0 .25494.0234.35278.0758.0992.051.17501.13919.19706.28388zm0 0"/><path d="m887.15048 359.67371c-.0992-.73036-.627-1.32154-1.78594-1.32154-1.04455 0-1.80936.44511-1.80936 1.33256 0 1.59439 2.40054 1.15893 2.40054 1.79145 0 .19706-.22599.30731-.56775.30731-.13367 0-.27836-.0345-.3886-.10473-.11576-.0689-.19706-.17915-.226-.33073h-1.31052c.0289.75378.74828 1.39733 1.84933 1.39733 1.14791 0 1.95406-.46991 1.95406-1.4373 0-1.51859-2.40054-1.12999-2.40054-1.757 0-.1502.13367-.23702.43545-.23702.1323 0 .25494.0234.35278.0758.0992.051.17364.13919.19706.28388zm0 0"/><path d="m893.51564 362.63511v-.97289h-2.11529v-.65595h1.72117v-.97427h-1.72117v-.59669h2.03399v-.97427h-3.40238v4.17407zm0 0"/><path d="m859.69169 362.63511v-1.29811h.6904c1.20027 0 1.73357-.56775 1.73357-1.46623 0-.85852-.58015-1.40836-1.78042-1.40836h-2.01194v4.1727zm0-2.27238v-.92742h.38861c.28939 0 .73036.0524.73036.44097 0 .35967-.23151.48645-.55121.48645zm0 0"/><path d="m866.40274 358.35217c-1.29811 0-2.18557.85163-2.18557 2.16214 0 1.41938.87643 2.23105 2.18557 2.23105 1.23472 0 2.19246-.79927 2.19246-2.22002 0-1.10106-.7028-2.17317-2.19246-2.17317m-.011 1.01975c.6022-.0179.83509.58567.83509 1.15342 0 .69039-.23289 1.20027-.82406 1.20027-.65457 0-.81718-.66697-.81718-1.20027 0-.52779.18604-1.15342.80615-1.15342"/><use fill="#fff" height="100%" transform="matrix(.35277778 0 0 .35277778 770.8854 351.82027)" width="100%" x="401.66629" xlink:href="#a" y="349.21851"/></g></svg>